<?xml version="1.0" standalone="no"?>
<!DOCTYPE svg PUBLIC "-//W3C//DTD SVG 20010904//EN"
 "http://www.w3.org/TR/2001/REC-SVG-20010904/DTD/svg10.dtd">
<svg version="1.0" xmlns="http://www.w3.org/2000/svg"
 width="512.000000pt" height="512.000000pt" viewBox="0 0 512.000000 512.000000"
 preserveAspectRatio="xMidYMid meet">
<metadata>
Created by potrace 1.11, written by Peter Selinger 2001-2013
</metadata>
<g transform="translate(0.000000,512.000000) scale(0.100000,-0.100000)"
fill="#000000" stroke="none">
<path d="M2378 5115 c-1 -1 -34 -5 -73 -8 -393 -34 -822 -188 -1168 -419 -131
-88 -234 -172 -382 -315 -352 -337 -623 -849 -710 -1338 -38 -217 -52 -508
-33 -720 16 -182 68 -416 134 -605 229 -658 746 -1216 1384 -1494 36 -15 74
-32 85 -37 125 -54 410 -130 580 -153 200 -28 545 -28 725 -1 202 32 498 113
638 176 499 225 872 539 1154 974 93 144 138 229 233 450 10 24 60 170 72 210
11 39 64 267 68 297 23 154 30 241 30 423 0 193 -3 251 -16 330 -4 28 -10 68
-13 90 -3 22 -7 49 -10 60 -2 11 -12 56 -21 100 -23 108 -103 349 -155 464
-297 656 -836 1151 -1510 1383 -83 28 -300 86 -350 94 -14 2 -38 6 -55 8 -16
3 -50 8 -75 11 -25 4 -56 9 -70 12 -27 5 -456 13 -462 8z"/>
</g>
</svg>
